<svg xmlns="http://www.w3.org/2000/svg" xmlns:xlink="http://www.w3.org/1999/xlink" width="295.722" height="295.722" viewBox="0 0 295.722 295.722">
  <defs>
    <filter id="楕円形_49" x="0" y="0" width="295.722" height="295.722" filterUnits="userSpaceOnUse">
      <feOffset dy="5" input="SourceAlpha"/>
      <feGaussianBlur stdDeviation="2.5" result="blur"/>
      <feFlood flood-opacity="0.161"/>
      <feComposite operator="in" in2="blur"/>
      <feComposite in="SourceGraphic"/>
    </filter>
  </defs>
  <g id="グループ_389" data-name="グループ 389" transform="translate(7.5 2.5)">
    <g transform="matrix(1, 0, 0, 1, -7.5, -2.5)" filter="url(#楕円形_49)">
      <g id="楕円形_49-2" data-name="楕円形 49" transform="translate(7.5 2.5)" fill="#e9dfc8" stroke="#fff" stroke-width="4">
        <circle cx="140.361" cy="140.361" r="140.361" stroke="none"/>
        <circle cx="140.361" cy="140.361" r="138.361" fill="none"/>
      </g>
    </g>
    <g id="いい考えが浮かんだときのアイコン2" transform="translate(85 45.465)">
      <path id="パス_133" data-name="パス 133" d="M189.055,151.068l-7.573-16.048c.021-.483.035-.963.035-1.445a36.541,36.541,0,1,0-59.791,28.189v12.917a3.136,3.136,0,0,0,1.911,2.891L153.9,190.408a3.136,3.136,0,0,0,4.365-2.887V176.578a3.138,3.138,0,0,1,3.138-3.141h15.5a3.144,3.144,0,0,0,3.145-3.141v-9.434a3.148,3.148,0,0,1,1.763-2.827l5.782-2.8A3.143,3.143,0,0,0,189.055,151.068Zm-44.082,7.354a24.847,24.847,0,1,1,24.854-24.847A24.849,24.849,0,0,1,144.974,158.422Z" transform="translate(-86.537 -75.138)" fill="#474359"/>
      <path id="パス_134" data-name="パス 134" d="M277.787,302.719a3.879,3.879,0,1,1-4.95-2.362A3.871,3.871,0,0,1,277.787,302.719Z" transform="translate(-211.841 -232.416)" fill="#474359"/>
      <path id="パス_135" data-name="パス 135" d="M236.365,187.02a4.268,4.268,0,1,0-8.045,2.852l6.014,14.655a3.493,3.493,0,0,0,6.586-2.334Z" transform="translate(-179.183 -142.622)" fill="#474359"/>
      <rect id="長方形_86" data-name="長方形 86" width="5.345" height="12.149" transform="translate(55.772)" fill="#474359"/>
      <path id="パス_136" data-name="パス 136" d="M141.335,39.3,136.7,41.973,130.625,31.45l4.632-2.669Z" transform="translate(-103.719 -22.287)" fill="#474359"/>
      <path id="パス_137" data-name="パス 137" d="M53.355,125.308l-2.672,4.633-10.527-6.078,2.679-4.629Z" transform="translate(-33.662 -92.332)" fill="#474359"/>
      <path id="パス_138" data-name="パス 138" d="M23.531,247.156V252.5H11.375l.007-5.345Z" transform="translate(-11.375 -191.391)" fill="#474359"/>
      <path id="パス_139" data-name="パス 139" d="M452.676,119.234l2.672,4.629-10.52,6.071-2.672-4.625Z" transform="translate(-344.961 -92.332)" fill="#474359"/>
      <path id="パス_140" data-name="パス 140" d="M368.79,28.781l4.632,2.672-6.078,10.52L362.719,39.3Z" transform="translate(-283.447 -22.287)" fill="#474359"/>
    </g>
    <text id="メーカー_担当者" data-name="メーカー
担当者" transform="translate(140 195.256)" fill="#474359" font-size="28" font-family="HiraginoSans-W3, Hiragino Sans" letter-spacing="0.2em"><tspan x="-66.78" y="0">メーカー</tspan><tspan y="0" font-family="Helvetica"></tspan><tspan x="-47.6" y="34">担当者</tspan></text>
  </g>
</svg>
