<svg xmlns="http://www.w3.org/2000/svg" width="44.449" height="36.151" viewBox="0 0 44.449 36.151">
  <g id="twitterのアイコン素材_その2" data-name="twitterのアイコン素材 その2" transform="translate(0 -0.001)">
    <path id="パス_171" data-name="パス 171" d="M56.935,50.424l.045,0A9.132,9.132,0,0,1,72.532,42.1a18.242,18.242,0,0,0,4.83-1.7c.317-.154.635-.307.947-.476a9.11,9.11,0,0,1-2.874,4.19,8.35,8.35,0,0,1-1.126.773c.027,0,.054-.009.081-.013-.027.017-.049.039-.076.056a18.268,18.268,0,0,0,4.293-1.058c.305-.105.61-.212.913-.33A18.565,18.565,0,0,1,75,48.227q.026.587.026,1.181c0,12.06-9.18,25.967-25.967,25.967a25.832,25.832,0,0,1-13.99-4.1,18.585,18.585,0,0,0,2.177.127,18.286,18.286,0,0,0,9.327-2.553,19.4,19.4,0,0,0,2.007-1.311c-.017,0-.033,0-.051,0,.017-.013.035-.024.051-.037a9,9,0,0,1-8.5-6.335,8.616,8.616,0,0,0,3.449-.029c.213-.03.428-.055.638-.089-.028-.006-.052-.018-.08-.024.029-.007.06-.01.088-.018a9.132,9.132,0,0,1-7.321-8.949c0-.035,0-.069,0-.1l0-.01A9.089,9.089,0,0,0,40.109,53c.286.048.573.092.86.117-.02-.013-.037-.029-.056-.042.027,0,.053.006.08.007a9.085,9.085,0,0,1-3.1-11.624c.1-.183.181-.37.291-.547A25.914,25.914,0,0,0,54.7,50.19c.741.108,1.483.2,2.235.247C56.937,50.433,56.936,50.428,56.935,50.424Z" transform="translate(-35.071 -39.222)" fill="#c7a778"/>
  </g>
</svg>
